<svg id="Layer_1" data-name="Layer 1" xmlns="http://www.w3.org/2000/svg" viewBox="0 0 357 78"><defs><style>.cls-1{fill:#f2f2f2;}</style></defs><title>conveyfeed_logo_white</title><path class="cls-1" d="M69.6,13.82,123.81,68,15.44,68Zm0-4L8.91,70.54H130.48L69.6,9.82Z"/><polygon class="cls-1" points="48.26 44.44 69.69 23 82.15 35.52 79.59 38.11 69.66 38.11 69.66 33.93 59.19 44.44 69.66 54.93 69.66 50.89 79.55 50.89 82.15 53.48 69.69 65.87 48.26 44.44"/><polygon class="cls-1" points="69.69 16.62 20.42 65.89 67.05 65.89 45.5 44.44 69.69 20.12 87.67 38.14 91.1 38.13 69.69 16.62"/><polygon class="cls-1" points="94.47 41.25 76.48 41.25 69.66 48.04 87.63 48.04 94.47 41.25"/><polygon class="cls-1" points="119.03 65.89 101.91 48.77 101.95 48.77 95.73 42.52 89.51 48.77 89.58 48.77 72.47 65.89 119.03 65.89"/><path class="cls-1" d="M141.76,60.67A4.64,4.64,0,0,1,145.08,62a.25.25,0,0,1,0,.38l-.84.87a.23.23,0,0,1-.34,0,3.21,3.21,0,0,0-2.11-.81,3.18,3.18,0,0,0,0,6.35,3.24,3.24,0,0,0,2.09-.78.26.26,0,0,1,.34,0l.85.88a.26.26,0,0,1,0,.37,4.68,4.68,0,0,1-3.33,1.33,4.94,4.94,0,1,1,0-9.87Z"/><path class="cls-1" d="M151.08,60.67a4.94,4.94,0,1,1-4.92,5A4.93,4.93,0,0,1,151.08,60.67Zm0,8.09a3.16,3.16,0,1,0-3.14-3.14A3.15,3.15,0,0,0,151.08,68.76Z"/><path class="cls-1" d="M162.05,60.67a4.94,4.94,0,1,1-4.92,5A4.93,4.93,0,0,1,162.05,60.67Zm0,8.09a3.16,3.16,0,1,0-3.14-3.14A3.16,3.16,0,0,0,162.05,68.76Z"/><path class="cls-1" d="M168.78,61.07a.26.26,0,0,1,.26-.26H173a3,3,0,0,1,3,2.95,3,3,0,0,1-2,2.76L175.8,70a.26.26,0,0,1-.24.39h-1.44a.22.22,0,0,1-.21-.12l-1.83-3.63h-1.52v3.49a.26.26,0,0,1-.26.26H169a.26.26,0,0,1-.26-.26Zm4,4.11a1.4,1.4,0,0,0,1.36-1.4,1.38,1.38,0,0,0-1.36-1.33h-2.24v2.73Z"/><path class="cls-1" d="M177.91,61.07a.26.26,0,0,1,.25-.26h3.24a4.8,4.8,0,1,1,0,9.59h-3.24a.26.26,0,0,1-.25-.26Zm3.33,7.66a3.13,3.13,0,0,0,0-6.26h-1.56v6.26Z"/><path class="cls-1" d="M188,61.07a.26.26,0,0,1,.26-.26h1.27a.26.26,0,0,1,.26.26v9.07a.26.26,0,0,1-.26.26h-1.27a.26.26,0,0,1-.26-.26Z"/><path class="cls-1" d="M192.32,60.92a.26.26,0,0,1,.26-.25h.34l5.7,6.06h0V61.07a.26.26,0,0,1,.26-.26h1.26a.26.26,0,0,1,.26.26v9.22a.26.26,0,0,1-.26.25h-.32l-5.73-6.29h0v5.89a.26.26,0,0,1-.26.26h-1.24a.26.26,0,0,1-.26-.26Z"/><path class="cls-1" d="M201.66,70.05l4.27-9.22a.24.24,0,0,1,.23-.16h.14a.23.23,0,0,1,.23.16l4.22,9.22a.24.24,0,0,1-.23.35h-1.19a.39.39,0,0,1-.4-.27l-.67-1.48h-4.1l-.67,1.48a.41.41,0,0,1-.4.27H201.9A.24.24,0,0,1,201.66,70.05Zm5.92-2.92-1.37-3h0l-1.34,3Z"/><path class="cls-1" d="M212.78,62.45h-2.09a.26.26,0,0,1-.27-.25V61.07a.26.26,0,0,1,.27-.26h6a.26.26,0,0,1,.26.26V62.2a.26.26,0,0,1-.26.25h-2.09v7.69a.27.27,0,0,1-.26.26H213a.26.26,0,0,1-.26-.26Z"/><path class="cls-1" d="M218.36,61.07a.26.26,0,0,1,.26-.26h5.58a.26.26,0,0,1,.26.26V62.2a.26.26,0,0,1-.26.25h-4.06V64.7h3.39a.28.28,0,0,1,.26.26V66.1a.26.26,0,0,1-.26.26h-3.39v2.4h4.06a.26.26,0,0,1,.26.26v1.12a.26.26,0,0,1-.26.26h-5.58a.26.26,0,0,1-.26-.26Z"/><path class="cls-1" d="M226.42,61.07a.26.26,0,0,1,.25-.26h3.25a4.8,4.8,0,1,1,0,9.59h-3.25a.26.26,0,0,1-.25-.26Zm3.33,7.66a3.13,3.13,0,0,0,0-6.26h-1.56v6.26Z"/><path class="cls-1" d="M243.81,60.67A4.62,4.62,0,0,1,247.13,62a.25.25,0,0,1,0,.38l-.83.87a.24.24,0,0,1-.35,0,3.21,3.21,0,0,0-2.1-.81,3.18,3.18,0,0,0,0,6.35A3.24,3.24,0,0,0,246,68a.27.27,0,0,1,.35,0l.85.88a.26.26,0,0,1,0,.37,4.68,4.68,0,0,1-3.33,1.33,4.94,4.94,0,1,1,0-9.87Z"/><path class="cls-1" d="M253.14,60.67a4.94,4.94,0,1,1-4.92,5A4.93,4.93,0,0,1,253.14,60.67Zm0,8.09A3.16,3.16,0,1,0,250,65.62,3.16,3.16,0,0,0,253.14,68.76Z"/><path class="cls-1" d="M259.87,60.92a.26.26,0,0,1,.26-.25h.34l5.7,6.06h0V61.07a.26.26,0,0,1,.26-.26h1.26a.27.27,0,0,1,.27.26v9.22a.27.27,0,0,1-.27.25h-.32l-5.73-6.29h0v5.89a.25.25,0,0,1-.26.26h-1.24a.26.26,0,0,1-.26-.26Z"/><path class="cls-1" d="M269.22,61.17a.24.24,0,0,1,.23-.36h1.4a.25.25,0,0,1,.23.15l2.63,5.89h.1L276.44,61a.24.24,0,0,1,.23-.15h1.4a.25.25,0,0,1,.23.36l-4.25,9.22a.25.25,0,0,1-.23.15h-.14a.25.25,0,0,1-.23-.15Z"/><path class="cls-1" d="M279.55,61.07a.26.26,0,0,1,.26-.26h5.58a.26.26,0,0,1,.26.26V62.2a.26.26,0,0,1-.26.25h-4.06V64.7h3.39A.28.28,0,0,1,285,65V66.1a.26.26,0,0,1-.26.26h-3.39v2.4h4.06a.26.26,0,0,1,.26.26v1.12a.26.26,0,0,1-.26.26h-5.58a.26.26,0,0,1-.26-.26Z"/><path class="cls-1" d="M289.45,65.79l-3.13-4.58a.26.26,0,0,1,.22-.4h1.4a.28.28,0,0,1,.22.12l2.19,3.16,2.19-3.16a.3.3,0,0,1,.22-.12h1.42a.25.25,0,0,1,.21.4l-3.16,4.56v4.37a.26.26,0,0,1-.26.26h-1.26a.26.26,0,0,1-.26-.26Z"/><path class="cls-1" d="M293.6,70.05l4.26-9.22a.24.24,0,0,1,.24-.16h.13a.24.24,0,0,1,.24.16l4.22,9.22a.24.24,0,0,1-.24.35h-1.19a.4.4,0,0,1-.4-.27l-.67-1.48H296.1l-.68,1.48a.39.39,0,0,1-.39.27h-1.2A.24.24,0,0,1,293.6,70.05Zm5.92-2.92-1.37-3h0l-1.34,3Z"/><path class="cls-1" d="M303.94,60.92a.26.26,0,0,1,.26-.25h.34l5.7,6.06h0V61.07a.25.25,0,0,1,.25-.26h1.27a.27.27,0,0,1,.26.26v9.22a.26.26,0,0,1-.26.25h-.33l-5.73-6.29h0v5.89a.26.26,0,0,1-.27.26H304.2a.26.26,0,0,1-.26-.26Z"/><path class="cls-1" d="M318.78,60.67A4.62,4.62,0,0,1,322.1,62a.25.25,0,0,1,0,.38l-.83.87a.24.24,0,0,1-.35,0,3.21,3.21,0,0,0-2.11-.81,3.18,3.18,0,0,0,0,6.35,3.24,3.24,0,0,0,2.09-.78.27.27,0,0,1,.35,0l.85.88a.27.27,0,0,1,0,.37,4.68,4.68,0,0,1-3.33,1.33,4.94,4.94,0,1,1,0-9.87Z"/><path class="cls-1" d="M323.91,61.07a.26.26,0,0,1,.26-.26h1.27a.26.26,0,0,1,.26.26v9.07a.26.26,0,0,1-.26.26h-1.27a.26.26,0,0,1-.26-.26Z"/><path class="cls-1" d="M328.2,60.92a.26.26,0,0,1,.26-.25h.34l5.7,6.06h0V61.07a.26.26,0,0,1,.26-.26H336a.27.27,0,0,1,.26.26v9.22a.26.26,0,0,1-.26.25h-.33L330,64.25h0v5.89a.26.26,0,0,1-.26.26h-1.25a.26.26,0,0,1-.26-.26Z"/><path class="cls-1" d="M343,60.67A5.15,5.15,0,0,1,346.37,62a.26.26,0,0,1,0,.38l-.85.89a.24.24,0,0,1-.36,0,3.1,3.1,0,0,0-2.07-.79,3.16,3.16,0,0,0,0,6.31,4.35,4.35,0,0,0,1.63-.34V67.24h-1.1a.25.25,0,0,1-.26-.25V65.91a.25.25,0,0,1,.26-.26h2.63a.26.26,0,0,1,.25.26v3.51a.29.29,0,0,1-.11.22,6.92,6.92,0,0,1-3.4.89,4.93,4.93,0,0,1,0-9.86Z"/><path class="cls-1" d="M149.89,48h1.2l-.5,4.13a20.05,20.05,0,0,1-3.43,1.28,12.35,12.35,0,0,1-3.11.42,9.71,9.71,0,0,1-3.8-.72,9.23,9.23,0,0,1-3.11-2.2,9.33,9.33,0,0,1-1.94-3.1,11,11,0,0,1-.62-3.86,12.15,12.15,0,0,1,.54-3.76,8.78,8.78,0,0,1,1.67-3,9.53,9.53,0,0,1,3.37-2.6,9.69,9.69,0,0,1,4.2-.93,10.84,10.84,0,0,1,2.8.39,18.5,18.5,0,0,1,3.15,1.18l.53,4-1.18.1A6.21,6.21,0,0,0,147.52,36a5.85,5.85,0,0,0-3.68-1.17A5,5,0,0,0,139.53,37a10.38,10.38,0,0,0-1.54,6.1A12.52,12.52,0,0,0,139.67,50a5.19,5.19,0,0,0,4.53,2.55,5.3,5.3,0,0,0,3.43-1.12A7.78,7.78,0,0,0,149.89,48Z"/><path class="cls-1" d="M164.72,53.8a9.25,9.25,0,0,1-3.81-.79,9.35,9.35,0,0,1-3.16-2.3,8.6,8.6,0,0,1-1.76-3,11.3,11.3,0,0,1-.61-3.8,11.77,11.77,0,0,1,.61-3.85,9.26,9.26,0,0,1,1.79-3.12A9.47,9.47,0,0,1,161,34.51a9.36,9.36,0,0,1,3.92-.84,8.88,8.88,0,0,1,3.45.68,9.18,9.18,0,0,1,2.95,2,9.52,9.52,0,0,1,2.13,3.22,10.41,10.41,0,0,1,.71,4,11.43,11.43,0,0,1-.57,3.62,9.34,9.34,0,0,1-1.62,3,9.78,9.78,0,0,1-3.26,2.72A8.89,8.89,0,0,1,164.72,53.8ZM158.77,43a12.63,12.63,0,0,0,1.68,7,5.13,5.13,0,0,0,4.5,2.57,5,5,0,0,0,4.31-2.22,10.88,10.88,0,0,0,1.54-6.23,11.76,11.76,0,0,0-1.75-6.72,5.3,5.3,0,0,0-4.54-2.55A4.88,4.88,0,0,0,160.29,37,10.36,10.36,0,0,0,158.77,43Z"/><path class="cls-1" d="M178.87,53.42V52.21h.3a2.22,2.22,0,0,0,2-.82,4.92,4.92,0,0,0,.59-2.75V37.5a6.31,6.31,0,0,0-1.47-1.65,3.29,3.29,0,0,0-1.68-.67V34.06h4.51l11.4,14.58V38.38a3.82,3.82,0,0,0-.57-2.48,3.39,3.39,0,0,0-2.25-.72V34.06h7v1.12a3.87,3.87,0,0,0-2.19.93,3.68,3.68,0,0,0-.58,2.43V50.31c0,.68,0,1.31.06,1.88s.09,1.11.16,1.61h-1.53c-.32-.5-.68-1-1.1-1.59s-1-1.38-1.89-2.43l-8.5-10.72v9.58a5.4,5.4,0,0,0,.53,2.79,2,2,0,0,0,1.83.81h.28l.18,0v1.21Z"/><path class="cls-1" d="M211.34,53.8l-6-15.15a.14.14,0,0,1,0-.07c-.89-2.27-1.8-3.4-2.71-3.4h-.14V34.06h7.18v1.12h-.13a2.38,2.38,0,0,0-1.29.28.94.94,0,0,0-.43.84,1.52,1.52,0,0,0,.07.43,3.61,3.61,0,0,0,.18.56l4.68,11.89c.48-1.31,1.14-3.06,2-5.23,1.66-4.3,2.48-6.77,2.48-7.41a1.11,1.11,0,0,0-.6-1,3.13,3.13,0,0,0-1.67-.37h-.1V34.06H221v1.12H221q-1.54,0-3,4.1l-.07.19q-1.15,3.21-3.08,8.16a62.42,62.42,0,0,0-2.19,6.17Z"/><path class="cls-1" d="M225,53.42V52.21a3.61,3.61,0,0,0,2.14-.74,3.45,3.45,0,0,0,.54-2.29V38.1a3.42,3.42,0,0,0-.54-2.28,3.67,3.67,0,0,0-2.14-.75v-1h15.36l.14,4.1h-1.15a3.58,3.58,0,0,0-1.69-2.31,8.66,8.66,0,0,0-4-.67h-2a1.31,1.31,0,0,0-.8.15,1.2,1.2,0,0,0-.17.78v6.43h2.19a6.51,6.51,0,0,0,3.33-.57,2.3,2.3,0,0,0,.85-2l1.18,0v6.52l-1.18,0a2.39,2.39,0,0,0-.88-2.07,6.48,6.48,0,0,0-3.3-.57h-2.19v5.63a2.71,2.71,0,0,0,.76,2.21,4.61,4.61,0,0,0,2.8.61,6.06,6.06,0,0,0,3.41-.93,7.22,7.22,0,0,0,2.38-2.93l1.21.31-1.17,4.73Z"/><path class="cls-1" d="M250,53.42V52.21a3.27,3.27,0,0,0,2.05-.73,3.15,3.15,0,0,0,.54-2.14V45.1l-3.68-6-.22-.34q-2.12-3.47-3.51-3.54V34.06h8v1.12h-.35a2.36,2.36,0,0,0-1.28.28.9.9,0,0,0-.44.81,2.42,2.42,0,0,0,.17.74,7.39,7.39,0,0,0,.48,1L255,43.63c.34-.6.82-1.4,1.44-2.42q2.24-3.69,2.24-4.41a1.31,1.31,0,0,0-.58-1.14,3.26,3.26,0,0,0-1.69-.49V34.06h6.84v1.12a3.85,3.85,0,0,0-1.63.74,6.33,6.33,0,0,0-1.38,1.56q-.51.8-2.07,3.39t-2.57,4.26v4.24a3.1,3.1,0,0,0,.62,2.16,2.52,2.52,0,0,0,2,.68v1.21Z"/><path class="cls-1" d="M273.72,49.18a3.45,3.45,0,0,0,.54,2.29,3.6,3.6,0,0,0,2.13.74v1.21H268V52.21a3.6,3.6,0,0,0,2.13-.74,3.45,3.45,0,0,0,.54-2.29v-11a3.45,3.45,0,0,0-.54-2.29,3.6,3.6,0,0,0-2.13-.74V34.06h15.88l.41,4.46H283a4.2,4.2,0,0,0-1.63-2.58,7,7,0,0,0-3.67-.73h-3.34a.7.7,0,0,0-.52.14.89.89,0,0,0-.13.59v6.65h3.58a3.59,3.59,0,0,0,2.3-.56,2.84,2.84,0,0,0,.76-2l1.06,0v6.73h-1.06a2.84,2.84,0,0,0-1-2.23,5.08,5.08,0,0,0-3-.67h-2.7Z"/><path class="cls-1" d="M288.1,53.42V52.21a3.67,3.67,0,0,0,2.15-.74,3.45,3.45,0,0,0,.54-2.29V38.1a3.42,3.42,0,0,0-.54-2.28,3.73,3.73,0,0,0-2.15-.75v-1h15.37l.13,4.1h-1.15a3.55,3.55,0,0,0-1.69-2.31,8.64,8.64,0,0,0-4-.67h-2a1.33,1.33,0,0,0-.8.15,1.21,1.21,0,0,0-.16.78v6.43h2.19a6.49,6.49,0,0,0,3.32-.57,2.33,2.33,0,0,0,.86-2l1.17,0v6.52l-1.17,0a2.42,2.42,0,0,0-.88-2.07,6.48,6.48,0,0,0-3.3-.57h-2.19v5.63a2.71,2.71,0,0,0,.75,2.21,4.65,4.65,0,0,0,2.8.61,6,6,0,0,0,3.41-.93,7.22,7.22,0,0,0,2.38-2.93l1.22.31-1.18,4.73Z"/><path class="cls-1" d="M308.61,53.42V52.21a3.61,3.61,0,0,0,2.14-.74,3.38,3.38,0,0,0,.55-2.29V38.1a3.35,3.35,0,0,0-.55-2.28,3.67,3.67,0,0,0-2.14-.75v-1H324l.13,4.1H323a3.55,3.55,0,0,0-1.69-2.31,8.64,8.64,0,0,0-4-.67h-2a1.33,1.33,0,0,0-.8.15,1.21,1.21,0,0,0-.16.78v6.43h2.19a6.49,6.49,0,0,0,3.32-.57,2.33,2.33,0,0,0,.86-2l1.17,0v6.52l-1.17,0a2.42,2.42,0,0,0-.88-2.07,6.48,6.48,0,0,0-3.3-.57h-2.19v5.63a2.71,2.71,0,0,0,.75,2.21,4.65,4.65,0,0,0,2.8.61,6,6,0,0,0,3.41-.93,7.22,7.22,0,0,0,2.38-2.93l1.22.31-1.18,4.73Z"/><path class="cls-1" d="M329,53.42V52.21a3.6,3.6,0,0,0,2.13-.74,3.45,3.45,0,0,0,.54-2.29V38.26a3.42,3.42,0,0,0-.53-2.26,3.61,3.61,0,0,0-2.14-.74v-1.2h7.08a25.94,25.94,0,0,1,4.94.37,11.69,11.69,0,0,1,3.35,1.19,8.59,8.59,0,0,1,3.39,3.29,9.31,9.31,0,0,1,1.2,4.72,8.91,8.91,0,0,1-3.14,7.1,12.38,12.38,0,0,1-8.34,2.69Zm5.8-4.6a3.72,3.72,0,0,0,.7,2.7,4.15,4.15,0,0,0,2.71.64,6.68,6.68,0,0,0,5.28-2.3,9,9,0,0,0,2-6.12,8.58,8.58,0,0,0-2.22-6.33A8.53,8.53,0,0,0,337,35.18a10,10,0,0,0-1.34.08,1.51,1.51,0,0,0-.66.19.49.49,0,0,0-.12.26,2,2,0,0,0,0,.48V48.82Z"/></svg>